<svg width="118" height="114" viewBox="0 0 118 114" fill="none" xmlns="http://www.w3.org/2000/svg">
<path d="M58.429 62.1449L73.9119 71.7443L98.6847 57.4523M58.429 62.1449L98.0653 38.8034M58.429 62.1449L17.8636 38.8034M58.429 62.1449L42.946 71.7443L17.8636 57.1615M58.429 62.1449V112M98.6847 38.4387L114.168 29.321L76.0795 6.09656L67.2543 11.1816M98.6847 38.4387L114.168 48.5199L98.6847 57.4523M98.6847 38.4387L98.0653 38.8034M98.0653 38.8034L69 22.2772M17.8636 38.8034L3 29.321L41.3977 6.09656L49.1392 10.7414M17.8636 38.8034L3 48.5199L17.8636 57.1615M17.8636 38.8034L47.5273 21M58.429 112L98.6847 89.0852V57.4523M58.429 112L17.8636 88.4659V57.1615M65.8608 92.8011L72.3636 89.0852M65.8608 100.233L72.3636 96.517" stroke="black" stroke-width="3"/>
<path d="M51.3066 26.78L58.4287 31.179L68.9571 24.6761V12.5994L58.4287 6.71591L47.9003 12.5994V24.6761L51.3066 26.78ZM51.3066 26.78V35.5142L75.46 49.7585V51.9261M47.281 45.1136L41.3975 48.5199V51.9261M66.7895 4.23864L69.5764 3V6.09659L66.7895 4.23864ZM50.6872 4.23864L47.9003 3V6.09659L50.6872 4.23864Z" stroke="black" stroke-width="3"/>
</svg>
